# Blender 3.4.1
# www.blender.org
mtllib arrow.mtl
o arrow
v 0.000000 0.018805 -0.350963
v 0.000000 16.510046 -0.350963
v 0.134308 0.018805 -0.324248
v 0.134308 16.510046 -0.324248
v 0.248169 0.018805 -0.248169
v 0.248169 16.510046 -0.248169
v 0.324248 0.018805 -0.134308
v 0.324248 16.510046 -0.134308
v 0.350963 0.018805 0.000000
v 0.350963 16.510046 0.000000
v 0.324248 0.018805 0.134308
v 0.324248 16.510046 0.134308
v 0.248169 0.018805 0.248169
v 0.248169 16.510046 0.248169
v 0.134308 0.018805 0.324248
v 0.134308 16.510046 0.324248
v 0.000000 0.018805 0.350963
v 0.000000 16.510046 0.350963
v -0.134308 0.018805 0.324248
v -0.134308 16.510046 0.324248
v -0.248169 0.018805 0.248169
v -0.248169 16.510046 0.248169
v -0.324248 0.018805 0.134308
v -0.324248 16.510046 0.134308
v -0.350963 0.018805 0.000000
v -0.350963 16.510046 0.000000
v -0.324248 0.018805 -0.134308
v -0.324248 16.510046 -0.134308
v -0.248169 0.018805 -0.248169
v -0.248169 16.510046 -0.248169
v -0.134308 0.018805 -0.324248
v -0.134308 16.510046 -0.324248
v 0.000000 16.287140 -1.000000
v 0.382683 16.287140 -0.923880
v 0.707107 16.287140 -0.707107
v 0.923880 16.287140 -0.382684
v 1.000000 16.287140 -0.000000
v 0.923880 16.287140 0.382683
v 0.707107 16.287140 0.707107
v 0.382683 16.287140 0.923879
v 0.000000 16.287140 1.000000
v -0.382683 16.287140 0.923879
v -0.707107 16.287140 0.707107
v -0.923880 16.287140 0.382683
v -1.000000 16.287140 -0.000000
v -0.923880 16.287140 -0.382684
v -0.707107 16.287140 -0.707107
v -0.382683 16.287140 -0.923880
v 0.000000 20.199965 -0.000000
vn -0.0000 0.0379 -0.9993
vn 0.3824 -0.0379 -0.9232
vn -0.0000 -0.0379 -0.9993
vn 0.3824 0.0379 -0.9232
vn 0.7066 -0.0379 -0.7066
vn 0.7066 0.0379 -0.7066
vn 0.9232 -0.0379 -0.3824
vn 0.9232 0.0379 -0.3824
vn 0.9993 -0.0379 -0.0000
vn 0.9993 0.0379 -0.0000
vn 0.9232 -0.0379 0.3824
vn 0.9232 0.0379 0.3824
vn 0.7066 -0.0379 0.7066
vn 0.7066 0.0379 0.7066
vn 0.3824 -0.0379 0.9232
vn 0.3824 0.0379 0.9232
vn -0.0000 -0.0379 0.9993
vn -0.0000 0.0379 0.9993
vn -0.3824 -0.0379 0.9232
vn -0.3824 0.0379 0.9232
vn -0.7066 -0.0379 0.7066
vn -0.7066 0.0379 0.7066
vn -0.9232 -0.0379 0.3824
vn -0.9232 0.0379 0.3824
vn -0.9993 -0.0379 -0.0000
vn -0.9993 0.0379 -0.0000
vn -0.9232 -0.0379 -0.3824
vn -0.9232 0.0379 -0.3824
vn -0.7066 -0.0379 -0.7066
vn -0.7066 0.0379 -0.7066
vn -0.3824 -0.0379 -0.9232
vn -0.3824 0.0379 -0.9232
vn -0.0000 -1.0000 -0.0000
vn -0.0000 -0.0031 -1.0000
vn -0.0000 1.0000 -0.0000
vn 0.3827 -0.0031 -0.9239
vn 0.7071 -0.0031 -0.7071
vn 0.9239 -0.0031 -0.3827
vn 1.0000 -0.0031 -0.0000
vn 0.9239 -0.0031 0.3827
vn 0.7071 -0.0031 0.7071
vn 0.3827 -0.0031 0.9239
vn -0.0000 -0.0031 1.0000
vn -0.3827 -0.0031 0.9239
vn -0.7071 -0.0031 0.7071
vn -0.9239 -0.0031 0.3827
vn -1.0000 -0.0031 -0.0000
vn -0.9239 -0.0031 -0.3827
vn -0.7071 -0.0031 -0.7071
vn -0.3827 -0.0031 -0.9239
s 1
f 2//1 3//2 1//3
f 4//4 5//5 3//2
f 6//6 7//7 5//5
f 8//8 9//9 7//7
f 10//10 11//11 9//9
f 12//12 13//13 11//11
f 14//14 15//15 13//13
f 16//16 17//17 15//15
f 18//18 19//19 17//17
f 20//20 21//21 19//19
f 22//22 23//23 21//21
f 24//24 25//25 23//23
f 26//26 27//27 25//25
f 28//28 29//29 27//27
f 22//22 14//14 6//6
f 30//30 31//31 29//29
f 32//32 1//3 31//31
s 0
f 15//33 23//33 31//33
s 1
f 33//34 49//35 34//36
f 34//36 49//35 35//37
f 35//37 49//35 36//38
f 36//38 49//35 37//39
f 37//39 49//35 38//40
f 38//40 49//35 39//41
f 39//41 49//35 40//42
f 40//42 49//35 41//43
f 41//43 49//35 42//44
f 42//44 49//35 43//45
f 43//45 49//35 44//46
f 44//46 49//35 45//47
f 45//47 49//35 46//48
f 46//48 49//35 47//49
s 0
f 40//33 44//33 48//33
s 1
f 47//49 49//35 48//50
f 48//50 49//35 33//34
f 2//1 4//4 3//2
f 4//4 6//6 5//5
f 6//6 8//8 7//7
f 8//8 10//10 9//9
f 10//10 12//12 11//11
f 12//12 14//14 13//13
f 14//14 16//16 15//15
f 16//16 18//18 17//17
f 18//18 20//20 19//19
f 20//20 22//22 21//21
f 22//22 24//24 23//23
f 24//24 26//26 25//25
f 26//26 28//28 27//27
f 28//28 30//30 29//29
f 6//6 4//4 2//1
f 2//1 32//32 30//30
f 30//30 28//28 26//26
f 26//26 24//24 22//22
f 22//22 20//20 18//18
f 18//18 16//16 14//14
f 14//14 12//12 10//10
f 10//10 8//8 6//6
f 6//6 2//1 30//30
f 30//30 26//26 22//22
f 22//22 18//18 14//14
f 14//14 10//10 6//6
f 6//6 30//30 22//22
f 30//30 32//32 31//31
f 32//32 2//1 1//3
s 0
f 31//33 1//33 3//33
f 3//33 5//33 7//33
f 7//33 9//33 11//33
f 11//33 13//33 15//33
f 15//33 17//33 19//33
f 19//33 21//33 23//33
f 23//33 25//33 27//33
f 27//33 29//33 31//33
f 31//33 3//33 7//33
f 7//33 11//33 15//33
f 15//33 19//33 23//33
f 23//33 27//33 31//33
f 31//33 7//33 15//33
f 48//33 33//33 34//33
f 34//33 35//33 36//33
f 36//33 37//33 38//33
f 38//33 39//33 40//33
f 40//33 41//33 42//33
f 42//33 43//33 44//33
f 44//33 45//33 46//33
f 46//33 47//33 48//33
f 48//33 34//33 36//33
f 36//33 38//33 40//33
f 40//33 42//33 44//33
f 44//33 46//33 48//33
f 48//33 36//33 40//33
